<svg width="21" height="21" viewBox="0 0 21 21" fill="none" xmlns="http://www.w3.org/2000/svg">
    <path
        d="M14.517 0.203613H6.447C4.87015 0.205466 3.35844 0.832756 2.24353 1.94785C1.12862 3.06294 0.501588 4.57477 0.5 6.15161L0.5 14.2216C0.501853 15.7985 1.12914 17.3102 2.24424 18.4251C3.35933 19.54 4.87115 20.167 6.448 20.1686H14.518C16.0948 20.1668 17.6066 19.5395 18.7215 18.4244C19.8364 17.3093 20.4634 15.7975 20.465 14.2206V6.15061C20.4631 4.57377 19.8359 3.06205 18.7208 1.94714C17.6057 0.832236 16.0938 0.205201 14.517 0.203613V0.203613ZM18.457 14.2206C18.457 14.738 18.3551 15.2504 18.1571 15.7284C17.9591 16.2064 17.6689 16.6408 17.303 17.0066C16.9371 17.3725 16.5028 17.6627 16.0248 17.8607C15.5468 18.0587 15.0344 18.1606 14.517 18.1606H6.447C5.40222 18.1603 4.40032 17.7451 3.66165 17.0063C2.92297 16.2674 2.508 15.2654 2.508 14.2206V6.15061C2.50827 5.10583 2.92349 4.10394 3.66235 3.36526C4.40122 2.62658 5.40322 2.21161 6.448 2.21161H14.518C15.5628 2.21188 16.5647 2.6271 17.3034 3.36597C18.042 4.10483 18.457 5.10683 18.457 6.15161V14.2216V14.2206Z"
        fill="#E2E8F0" />
    <path
        d="M10.482 5.02258C9.11344 5.0247 7.80154 5.56937 6.83391 6.53719C5.86627 7.50501 5.32186 8.81701 5.32001 10.1856C5.32159 11.5545 5.86603 12.8669 6.83391 13.835C7.80179 14.803 9.11409 15.3477 10.483 15.3496C11.8521 15.348 13.1647 14.8034 14.1328 13.8353C15.1008 12.8672 15.6454 11.5547 15.647 10.1856C15.6449 8.81667 15.0999 7.50447 14.1317 6.53678C13.1634 5.56909 11.8509 5.02491 10.482 5.02358V5.02258ZM10.482 13.3416C9.64525 13.3416 8.84276 13.0092 8.25109 12.4175C7.65941 11.8258 7.32701 11.0233 7.32701 10.1866C7.32701 9.34982 7.65941 8.54734 8.25109 7.95566C8.84276 7.36398 9.64525 7.03158 10.482 7.03158C11.3188 7.03158 12.1213 7.36398 12.7129 7.95566C13.3046 8.54734 13.637 9.34982 13.637 10.1866C13.637 11.0233 13.3046 11.8258 12.7129 12.4175C12.1213 13.0092 11.3188 13.3416 10.482 13.3416Z"
        fill="#E2E8F0" />
    <path
        d="M15.656 6.29858C16.3392 6.29858 16.893 5.74476 16.893 5.06158C16.893 4.37841 16.3392 3.82458 15.656 3.82458C14.9728 3.82458 14.419 4.37841 14.419 5.06158C14.419 5.74476 14.9728 6.29858 15.656 6.29858Z"
        fill="#E2E8F0" />
</svg>