<svg width="21" height="20" viewBox="0 0 21 20" fill="none" xmlns="http://www.w3.org/2000/svg">
    <path
        d="M20.459 11.9226V19.3016H16.181V12.4166C16.181 10.6866 15.562 9.50661 14.014 9.50661C12.832 9.50661 12.128 10.3026 11.819 11.0716C11.706 11.3466 11.677 11.7296 11.677 12.1146V19.3016H7.397C7.397 19.3016 7.455 7.64161 7.397 6.43261H11.677V8.25661L11.649 8.29861H11.677V8.25661C12.245 7.38161 13.26 6.13061 15.533 6.13061C18.348 6.13061 20.459 7.97061 20.459 11.9226ZM2.921 0.229614C1.458 0.229614 0.5 1.18961 0.5 2.45261C0.5 3.68761 1.43 4.67661 2.865 4.67661H2.893C4.386 4.67661 5.313 3.68761 5.313 2.45261C5.287 1.18961 4.387 0.229614 2.922 0.229614H2.921ZM0.754 19.3016H5.032V6.43261H0.754V19.3016Z"
        fill="#E2E8F0" />
</svg>