<svg width="21" height="17" viewBox="0 0 21 17" fill="none" xmlns="http://www.w3.org/2000/svg">
    <path
        d="M20.5 2.11066C19.7504 2.43803 18.9565 2.65269 18.144 2.74766C18.9968 2.24689 19.638 1.45276 19.948 0.513655C19.14 0.983983 18.2587 1.31526 17.341 1.49366C16.9545 1.08886 16.4897 0.767043 15.9748 0.547833C15.4598 0.328624 14.9056 0.216621 14.346 0.218655C12.08 0.218655 10.243 2.02866 10.243 4.25866C10.243 4.57466 10.279 4.88366 10.349 5.17866C8.72358 5.10135 7.13212 4.68606 5.67617 3.95929C4.22022 3.23253 2.93176 2.21024 1.893 0.957655C1.52883 1.57206 1.33742 2.27344 1.339 2.98766C1.3397 3.65562 1.50683 4.31289 1.82529 4.90005C2.14375 5.48721 2.6035 5.98577 3.163 6.35066C2.51248 6.32965 1.87602 6.15598 1.305 5.84366V5.89366C1.305 7.85166 2.72 9.48466 4.595 9.85666C4.24261 9.95015 3.87958 9.99755 3.515 9.99765C3.25 9.99765 2.993 9.97266 2.742 9.92266C3.01008 10.7306 3.52311 11.435 4.20982 11.938C4.89653 12.441 5.72284 12.7177 6.574 12.7297C5.11407 13.8542 3.32182 14.4617 1.479 14.4567C1.147 14.4567 0.821 14.4367 0.5 14.4007C2.38125 15.5914 4.56259 16.2219 6.789 16.2187C14.336 16.2187 18.462 10.0617 18.462 4.72266L18.448 4.19966C19.2529 3.63333 19.9481 2.9255 20.5 2.11066Z"
        fill="#E2E8F0" />
</svg>