<svg width="21" height="15" viewBox="0 0 21 15" fill="none" xmlns="http://www.w3.org/2000/svg">
    <path
        d="M16.312 0.220604H4.645C2.355 0.220604 0.5 2.0556 0.5 4.3196V10.0876C0.5 12.3516 2.356 14.1876 4.645 14.1876H16.312C18.602 14.1876 20.457 12.3516 20.457 10.0876V4.3196C20.457 2.0556 18.601 0.219604 16.312 0.219604V0.220604ZM13.509 7.4836L8.052 10.0586C8.01872 10.0746 7.98192 10.082 7.94503 10.08C7.90815 10.0779 7.87237 10.0666 7.84103 10.0471C7.8097 10.0275 7.78382 10.0003 7.7658 9.96808C7.74779 9.93583 7.73822 9.89955 7.738 9.86261V4.5536C7.73867 4.51648 7.74872 4.48012 7.76722 4.44793C7.78573 4.41573 7.81208 4.38875 7.84382 4.36948C7.87556 4.35022 7.91167 4.3393 7.94877 4.33775C7.98587 4.33619 8.02276 4.34406 8.056 4.3606L13.514 7.0956C13.5504 7.11374 13.5809 7.14175 13.602 7.17643C13.6232 7.21111 13.6341 7.25105 13.6336 7.29167C13.6331 7.33229 13.6211 7.37194 13.5991 7.40607C13.577 7.44019 13.5458 7.46741 13.509 7.4846V7.4836Z"
        fill="#E2E8F0" />
</svg>